<svg xmlns="http://www.w3.org/2000/svg" width="500" height="500" viewBox="0 0 50 50" style="fill: rgb(253, 84, 129);">
    <path d="M 10 0 C 4.486 0 0 4.486 0 10 L 0 40 C 0 45.514 4.486 50 10 50 L 40 50 C 45.514 50 50 45.514 50 40 L 50 10 C 50 4.486 45.514 0 40 0 L 10 0 z M 40.5 6 L 43.5 6 C 44.326 6 45 6.674 45 7.5 L 45 10.5 C 45 11.326 44.326 12 43.5 12 L 40.5 12 C 39.674 12 39 11.326 39 10.5 L 39 7.5 C 39 6.674 39.674 6 40.5 6 z M 25 8 C 31.482 8 37.133 11.65 40 17 L 44 17 L 44 39.78125 C 44 42.11225 42.11225 44 39.78125 44 L 10.21875 44 C 7.88775 44 6 42.11225 6 39.78125 L 6 17 L 10 17 C 12.867 11.65 18.517 8 25 8 z M 25 10 C 16.729 10 10 16.729 10 25 C 10 33.271 16.729 40 25 40 C 33.271 40 40 33.271 40 25 C 40 16.729 33.271 10 25 10 z M 25 15 C 30.521 15 35 19.476 35 25 C 35 30.523 30.521 35 25 35 C 19.478 35 15 30.523 15 25 C 15 19.476 19.478 15 25 15 z"/>
</svg>