<svg xmlns="http://www.w3.org/2000/svg" width="500" height="500" viewBox="0 0 50 50" style="fill: rgb(253, 84, 129);">
    <path d="M40,0H10C4.486,0,0,4.486,0,10v30c0,5.514,4.486,10,10,10h30c5.514,0,10-4.486,10-10V10C50,4.486,45.514,0,40,0z M34,40.239 c0,0.124-0.053,0.241-0.146,0.325C33.74,40.663,31.012,43,24.743,43C17.229,43,17,34.618,17,33.663V23.01L13.431,23 C13.193,23,13,22.818,13,22.58v-3.77c0-0.177,0.109-0.337,0.274-0.402c0.068-0.025,6.786-2.634,6.786-8.977 C20.06,9.193,20.253,9,20.491,9h4.086c0.238,0,0.431,0.193,0.431,0.431L25,17h6.561c0.238,0,0.432,0.206,0.432,0.444v5.109 c0,0.238-0.193,0.447-0.432,0.447H25c0,0,0,10.253,0,10.502c0,0.248,0.227,3.262,3.434,3.262c2.655,0,4.887-1.367,4.908-1.382 c0.133-0.085,0.299-0.088,0.436-0.011C33.915,35.447,34,35.591,34,35.748V40.239z"/>
</svg>